<svg width="33" height="32" viewBox="0 0 33 32" fill="none" xmlns="http://www.w3.org/2000/svg">
<path d="M30.911 5.29493C25.2939 5.29493 17.8807 5.29492 11.9592 5.29492C9.38382 5.29492 7.25262 7.41527 6.43237 9.85659C5.42212 12.8634 3.67315 16.0144 1.9864 18.6031C0.869285 20.3176 2.05949 22.7396 4.10579 22.7396M30.911 5.29493V25.3096C30.911 27.885 28.8232 29.9728 26.2478 29.9728H10.488C8.72559 29.9728 7.2969 28.5441 7.2969 26.7817M30.911 5.29493C30.911 10.4847 26.1741 17.3432 22.8909 21.2274C22.058 22.2127 20.8183 22.7396 19.5282 22.7396H4.10579M30.911 5.29493C30.911 13.8739 28.0056 21.0099 25.7961 24.8301C25.0612 26.1007 23.665 26.7817 22.1972 26.7817H7.2969M4.10579 22.7396C3.2163 24.6174 4.5859 26.7817 6.66374 26.7817H7.2969" stroke="#FAFAFA" stroke-width="2.6425" stroke-linejoin="round"/>
<path d="M12.1369 10.1136H10.4452C10.1476 10.1136 9.87622 10.2836 9.74612 10.5513L9.17992 11.7171C8.92918 12.2333 9.30511 12.8339 9.87901 12.8339H11.5706C11.8682 12.8339 12.1397 12.6639 12.2697 12.3962L12.836 11.2304C13.0867 10.7142 12.7107 10.1136 12.1369 10.1136Z" fill="#A5C4D4"/>
<path d="M17.4218 10.1136H15.7301C15.4325 10.1136 15.1611 10.2836 15.031 10.5513L14.4648 11.7171C14.2141 12.2333 14.59 12.8339 15.1639 12.8339H16.8555C17.1531 12.8339 17.4246 12.6639 17.5546 12.3962L18.1209 11.2304C18.3716 10.7142 17.9957 10.1136 17.4218 10.1136Z" fill="#A5C4D4"/>
<path d="M10.2715 14.4659H8.5799C8.2823 14.4659 8.01082 14.6359 7.8808 14.9036L7.31455 16.0694C7.06382 16.5856 7.43979 17.1862 8.01365 17.1862H9.70532C10.0029 17.1862 10.2743 17.0162 10.4044 16.7485L10.9706 15.5827C11.2213 15.0665 10.8454 14.4659 10.2715 14.4659Z" fill="#A5C4D4"/>
<path d="M16.1762 7.08259C16.1762 7.72645 15.6543 8.2484 15.0104 8.2484C14.3665 8.2484 13.8446 7.72645 13.8446 7.08259H16.1762ZM17.8861 3.97376C17.8861 3.89844 17.8669 3.78123 17.8121 3.64826C17.7579 3.51703 17.6828 3.40444 17.6036 3.3245C17.5261 3.24635 17.4603 3.21413 17.4149 3.20183C17.3784 3.19194 17.3086 3.18103 17.181 3.22541L16.415 1.0232C17.577 0.619011 18.5983 1.01617 19.2593 1.68287C19.8693 2.2981 20.2177 3.17247 20.2177 3.97376H17.8861ZM17.181 3.22541C17.0929 3.25604 16.9476 3.34957 16.7798 3.6469C16.611 3.9461 16.4747 4.35815 16.3757 4.83878C16.1781 5.79722 16.1762 6.77818 16.1762 7.08259H13.8446C13.8446 6.76523 13.8427 5.57793 14.092 4.36811C14.2164 3.76461 14.4154 3.09254 14.7493 2.50091C15.0842 1.90743 15.6093 1.30345 16.415 1.0232L17.181 3.22541Z" fill="#A5C4D4"/>
<path d="M23.0157 7.08259C23.0157 7.72645 22.4937 8.2484 21.8499 8.2484C21.206 8.2484 20.6841 7.72645 20.6841 7.08259H23.0157ZM24.7255 3.97376C24.7255 3.89844 24.7064 3.78123 24.6515 3.64826C24.5974 3.51703 24.5223 3.40444 24.443 3.3245C24.3656 3.24635 24.2998 3.21413 24.2544 3.20183C24.2179 3.19194 24.148 3.18103 24.0205 3.22541L23.2545 1.0232C24.4165 0.619011 25.4378 1.01617 26.0988 1.68287C26.7088 2.2981 27.0572 3.17247 27.0572 3.97376H24.7255ZM24.0205 3.22541C23.9324 3.25604 23.7871 3.34957 23.6193 3.6469C23.4504 3.9461 23.3142 4.35815 23.2151 4.83878C23.0176 5.79722 23.0157 6.77818 23.0157 7.08259H20.6841C20.6841 6.76523 20.6822 5.57793 20.9315 4.36811C21.0559 3.76461 21.2548 3.09254 21.5887 2.50091C21.9237 1.90743 22.4487 1.30345 23.2545 1.0232L24.0205 3.22541Z" fill="#A5C4D4"/>
</svg>
