<svg width="933" height="204" viewBox="0 0 933 204" fill="none" xmlns="http://www.w3.org/2000/svg">
<path d="M289.836 163.427C282.764 163.427 276.42 162.179 270.804 159.683C265.188 157.083 260.716 153.599 257.388 149.231C254.164 144.863 252.396 140.027 252.084 134.723H274.08C274.496 138.051 276.108 140.807 278.916 142.991C281.828 145.175 285.416 146.267 289.68 146.267C293.84 146.267 297.064 145.435 299.352 143.771C301.744 142.107 302.94 139.975 302.94 137.375C302.94 134.567 301.484 132.487 298.572 131.135C295.764 129.679 291.24 128.119 285 126.455C278.552 124.895 273.248 123.283 269.088 121.619C265.032 119.955 261.496 117.407 258.48 113.975C255.568 110.543 254.112 105.915 254.112 100.091C254.112 95.3069 255.464 90.9389 258.168 86.9869C260.976 83.0349 264.928 79.9149 270.024 77.6269C275.224 75.3389 281.308 74.1949 288.276 74.1949C298.572 74.1949 306.788 76.7949 312.924 81.9949C319.06 87.0909 322.44 94.0069 323.064 102.743H302.16C301.848 99.3109 300.392 96.6069 297.792 94.6309C295.296 92.5509 291.916 91.5109 287.652 91.5109C283.7 91.5109 280.632 92.2389 278.448 93.6949C276.368 95.1509 275.328 97.1789 275.328 99.7789C275.328 102.691 276.784 104.927 279.696 106.487C282.608 107.943 287.132 109.451 293.268 111.011C299.508 112.571 304.656 114.183 308.712 115.847C312.768 117.511 316.252 120.111 319.164 123.647C322.18 127.079 323.74 131.655 323.844 137.375C323.844 142.367 322.44 146.839 319.632 150.791C316.928 154.743 312.976 157.863 307.776 160.151C302.68 162.335 296.7 163.427 289.836 163.427ZM423.36 75.5989V162.023H401.364V151.103C398.556 154.847 394.864 157.811 390.288 159.995C385.816 162.075 380.928 163.115 375.624 163.115C368.864 163.115 362.884 161.711 357.684 158.903C352.484 155.991 348.376 151.779 345.36 146.267C342.448 140.651 340.992 133.995 340.992 126.299V75.5989H362.832V123.179C362.832 130.043 364.548 135.347 367.98 139.091C371.412 142.731 376.092 144.551 382.02 144.551C388.052 144.551 392.784 142.731 396.216 139.091C399.648 135.347 401.364 130.043 401.364 123.179V75.5989H423.36ZM466.749 88.2349C469.557 84.0749 473.405 80.6949 478.293 78.0949C483.285 75.4949 488.953 74.1949 495.297 74.1949C502.681 74.1949 509.337 76.0149 515.265 79.6549C521.297 83.2949 526.029 88.4949 529.461 95.2549C532.997 101.911 534.765 109.659 534.765 118.499C534.765 127.339 532.997 135.191 529.461 142.055C526.029 148.815 521.297 154.067 515.265 157.811C509.337 161.555 502.681 163.427 495.297 163.427C488.849 163.427 483.181 162.179 478.293 159.683C473.509 157.083 469.661 153.755 466.749 149.699V162.023H444.909V46.5829H466.749V88.2349ZM512.457 118.499C512.457 113.299 511.365 108.827 509.181 105.083C507.101 101.235 504.293 98.3229 500.757 96.3469C497.325 94.3709 493.581 93.3829 489.525 93.3829C485.573 93.3829 481.829 94.4229 478.293 96.5029C474.861 98.4789 472.053 101.391 469.869 105.239C467.789 109.087 466.749 113.611 466.749 118.811C466.749 124.011 467.789 128.535 469.869 132.383C472.053 136.231 474.861 139.195 478.293 141.275C481.829 143.251 485.573 144.239 489.525 144.239C493.581 144.239 497.325 143.199 500.757 141.119C504.293 139.039 507.101 136.075 509.181 132.227C511.365 128.379 512.457 123.803 512.457 118.499ZM555.003 53.1349H577.935L561.087 92.4469H546.111L555.003 53.1349Z" fill="#36151E"/>
<path d="M631.972 163.427C623.652 163.427 616.164 161.607 609.508 157.967C602.852 154.223 597.6 148.971 593.752 142.211C590.008 135.451 588.136 127.651 588.136 118.811C588.136 109.971 590.06 102.171 593.908 95.4109C597.86 88.6509 603.216 83.4509 609.976 79.8109C616.736 76.0669 624.276 74.1949 632.596 74.1949C640.916 74.1949 648.456 76.0669 655.216 79.8109C661.976 83.4509 667.28 88.6509 671.128 95.4109C675.08 102.171 677.056 109.971 677.056 118.811C677.056 127.651 675.028 135.451 670.972 142.211C667.02 148.971 661.612 154.223 654.748 157.967C647.988 161.607 640.396 163.427 631.972 163.427ZM631.972 144.395C635.924 144.395 639.616 143.459 643.048 141.587C646.584 139.611 649.392 136.699 651.472 132.851C653.552 129.003 654.592 124.323 654.592 118.811C654.592 110.595 652.408 104.303 648.04 99.9349C643.776 95.4629 638.524 93.2269 632.284 93.2269C626.044 93.2269 620.792 95.4629 616.528 99.9349C612.368 104.303 610.288 110.595 610.288 118.811C610.288 127.027 612.316 133.371 616.372 137.843C620.532 142.211 625.732 144.395 631.972 144.395ZM714.917 88.0789C717.725 84.1269 721.573 80.8509 726.461 78.2509C731.453 75.5469 737.121 74.1949 743.465 74.1949C750.849 74.1949 757.505 76.0149 763.433 79.6549C769.465 83.2949 774.197 88.4949 777.629 95.2549C781.165 101.911 782.933 109.659 782.933 118.499C782.933 127.339 781.165 135.191 777.629 142.055C774.197 148.815 769.465 154.067 763.433 157.811C757.505 161.555 750.849 163.427 743.465 163.427C737.121 163.427 731.505 162.127 726.617 159.527C721.833 156.927 717.933 153.651 714.917 149.699V203.207H693.077V75.5989H714.917V88.0789ZM760.625 118.499C760.625 113.299 759.533 108.827 757.349 105.083C755.269 101.235 752.461 98.3229 748.925 96.3469C745.493 94.3709 741.749 93.3829 737.693 93.3829C733.741 93.3829 729.997 94.4229 726.461 96.5029C723.029 98.4789 720.221 101.391 718.037 105.239C715.957 109.087 714.917 113.611 714.917 118.811C714.917 124.011 715.957 128.535 718.037 132.383C720.221 136.231 723.029 139.195 726.461 141.275C729.997 143.251 733.741 144.239 737.693 144.239C741.749 144.239 745.493 143.199 748.925 141.119C752.461 139.039 755.269 136.075 757.349 132.227C759.533 128.379 760.625 123.803 760.625 118.499ZM824.231 93.5389V135.347C824.231 138.259 824.907 140.391 826.259 141.743C827.715 142.991 830.107 143.615 833.435 143.615H843.575V162.023H829.847C811.439 162.023 802.235 153.079 802.235 135.191V93.5389H791.939V75.5989H802.235V54.2269H824.231V75.5989H843.575V93.5389H824.231ZM870.36 65.3029C866.512 65.3029 863.288 64.1069 860.688 61.7149C858.192 59.2189 856.944 56.1509 856.944 52.5109C856.944 48.8709 858.192 45.8549 860.688 43.4629C863.288 40.9669 866.512 39.7189 870.36 39.7189C874.208 39.7189 877.38 40.9669 879.876 43.4629C882.476 45.8549 883.776 48.8709 883.776 52.5109C883.776 56.1509 882.476 59.2189 879.876 61.7149C877.38 64.1069 874.208 65.3029 870.36 65.3029ZM881.124 75.5989V162.023H859.284V75.5989H881.124ZM912.374 163.115C908.422 163.115 905.146 161.919 902.546 159.527C900.05 157.031 898.802 153.963 898.802 150.323C898.802 146.683 900.05 143.667 902.546 141.275C905.146 138.779 908.422 137.531 912.374 137.531C916.222 137.531 919.394 138.779 921.89 141.275C924.386 143.667 925.634 146.683 925.634 150.323C925.634 153.963 924.386 157.031 921.89 159.527C919.394 161.919 916.222 163.115 912.374 163.115Z" fill="#593F62"/>
<path d="M205.293 29.023C169.157 29.023 121.465 29.0229 83.3703 29.023C66.8018 29.023 53.0914 42.6638 47.8144 58.3695C41.3152 77.7131 30.0636 97.9845 19.2122 114.639C12.0255 125.668 19.6824 141.25 32.8469 141.25V141.25M205.293 29.023V157.783C205.293 174.352 191.862 187.783 175.293 187.783H73.9055C62.5674 187.783 53.3762 178.592 53.3762 167.254V167.254M205.293 29.023C205.293 62.4104 174.819 106.533 153.697 131.521C148.339 137.86 140.364 141.25 132.064 141.25H32.8469M205.293 29.023C205.293 84.2144 186.601 130.122 172.387 154.698C167.659 162.872 158.677 167.254 149.234 167.254H53.3762M53.3762 167.254H49.3029C35.9356 167.254 27.1245 153.33 32.8469 141.25V141.25" stroke="#36151E" stroke-width="17" stroke-linejoin="round"/>
<path d="M84.5128 60.0229H73.63C71.7154 60.0229 69.969 61.1162 69.1325 62.8384L65.4896 70.3384C63.8766 73.6593 66.2953 77.5229 69.9872 77.5229H80.87C82.7846 77.5229 84.531 76.4296 85.3675 74.7075L89.0104 67.2075C90.6234 63.8866 88.2047 60.0229 84.5128 60.0229Z" fill="#593F62"/>
<path d="M118.513 60.0229H107.63C105.715 60.0229 103.969 61.1162 103.132 62.8384L99.4896 70.3384C97.8766 73.6593 100.295 77.5229 103.987 77.5229H114.87C116.785 77.5229 118.531 76.4296 119.368 74.7075L123.01 67.2075C124.623 63.8866 122.205 60.0229 118.513 60.0229Z" fill="#593F62"/>
<path d="M72.5128 88.0229H61.63C59.7154 88.0229 57.969 89.1162 57.1325 90.8384L53.4896 98.3384C51.8766 101.659 54.2953 105.523 57.9872 105.523H68.87C70.7846 105.523 72.531 104.43 73.3675 102.707L77.0104 95.2075C78.6234 91.8866 76.2047 88.0229 72.5128 88.0229Z" fill="#593F62"/>
<path d="M114.5 8.62495L116.964 15.7087L114.5 8.62495ZM110.5 40.5231C110.5 44.6652 107.142 48.0231 103 48.0231C98.8579 48.0231 95.5 44.6652 95.5 40.5231H110.5ZM121.5 20.5231C121.5 20.0385 121.377 19.2844 121.024 18.429C120.675 17.5848 120.192 16.8605 119.683 16.3462C119.184 15.8434 118.761 15.6362 118.469 15.557C118.234 15.4934 117.785 15.4232 116.964 15.7087L112.036 1.54123C119.512 -1.05903 126.082 1.49601 130.334 5.78506C134.259 9.74303 136.5 15.3681 136.5 20.5231H121.5ZM116.964 15.7087C116.397 15.9057 115.463 16.5075 114.383 18.4203C113.297 20.3451 112.42 22.996 111.783 26.088C110.512 32.2539 110.5 38.5647 110.5 40.5231H95.5C95.5 38.4814 95.4877 30.8432 97.0919 23.06C97.8921 19.1776 99.1719 14.8539 101.32 11.0478C103.475 7.22972 106.853 3.34419 112.036 1.54123L116.964 15.7087Z" fill="#593F62"/>
<path d="M158.5 8.62495L160.964 15.7087L158.5 8.62495ZM154.5 40.5231C154.5 44.6652 151.142 48.0231 147 48.0231C142.858 48.0231 139.5 44.6652 139.5 40.5231H154.5ZM165.5 20.5231C165.5 20.0385 165.377 19.2844 165.024 18.429C164.675 17.5848 164.192 16.8605 163.683 16.3462C163.184 15.8434 162.761 15.6362 162.469 15.557C162.234 15.4934 161.785 15.4232 160.964 15.7087L156.036 1.54123C163.512 -1.05903 170.082 1.49601 174.334 5.78507C178.259 9.74303 180.5 15.3681 180.5 20.5231H165.5ZM160.964 15.7087C160.397 15.9057 159.463 16.5075 158.383 18.4203C157.297 20.3451 156.42 22.996 155.783 26.088C154.512 32.2539 154.5 38.5647 154.5 40.5231H139.5C139.5 38.4814 139.488 30.8432 141.092 23.06C141.892 19.1776 143.172 14.8539 145.32 11.0478C147.475 7.22972 150.853 3.34419 156.036 1.54123L160.964 15.7087Z" fill="#593F62"/>
</svg>
