<svg width="56" height="56" viewBox="0 0 56 56" fill="none" xmlns="http://www.w3.org/2000/svg">
<circle cx="28" cy="28" r="28" fill="#4E3F62"/>
<path d="M40.3537 16.4345C34.7366 16.4345 27.3234 16.4344 21.4019 16.4344C18.8265 16.4344 16.6952 18.5548 15.875 20.9961C14.8647 24.0029 13.1158 27.1539 11.429 29.7426C10.3119 31.4571 11.5021 33.8791 13.5484 33.8791M40.3537 16.4345V36.4491C40.3537 39.0245 38.2659 41.1123 35.6905 41.1123H19.9307C18.1682 41.1123 16.7395 39.6836 16.7395 37.9212M40.3537 16.4345C40.3537 21.6242 35.6168 28.4827 32.3336 32.3669C31.5007 33.3522 30.261 33.8791 28.9709 33.8791H13.5484M40.3537 16.4345C40.3537 25.0134 37.4483 32.1494 35.2388 35.9696C34.5039 37.2402 33.1077 37.9212 31.6399 37.9212H16.7395M13.5484 33.8791C12.6589 35.7569 14.0285 37.9212 16.1064 37.9212H16.7395" stroke="#FAFAFA" stroke-width="2.6425" stroke-linejoin="round"/>
<path d="M21.5795 21.2532H19.8878C19.5902 21.2532 19.3188 21.4232 19.1887 21.6909L18.6225 22.8567C18.3718 23.3729 18.7477 23.9735 19.3216 23.9735H21.0132C21.3108 23.9735 21.5823 23.8035 21.7123 23.5358L22.2786 22.37C22.5293 21.8538 22.1533 21.2532 21.5795 21.2532Z" fill="#A5C4D4"/>
<path d="M26.8644 21.2532H25.1727C24.8751 21.2532 24.6037 21.4232 24.4736 21.6909L23.9074 22.8567C23.6567 23.3729 24.0326 23.9735 24.6065 23.9735H26.2981C26.5957 23.9735 26.8672 23.8035 26.9972 23.5358L27.5635 22.37C27.8142 21.8538 27.4383 21.2532 26.8644 21.2532Z" fill="#A5C4D4"/>
<path d="M19.7141 25.6055H18.0225C17.7249 25.6055 17.4534 25.7755 17.3234 26.0432L16.7572 27.209C16.5064 27.7252 16.8824 28.3258 17.4563 28.3258H19.1479C19.4455 28.3258 19.7169 28.1558 19.847 27.8881L20.4132 26.7223C20.6639 26.2061 20.288 25.6055 19.7141 25.6055Z" fill="#A5C4D4"/>
<path d="M25.6188 18.2221C25.6188 18.866 25.0969 19.3879 24.453 19.3879C23.8091 19.3879 23.2872 18.866 23.2872 18.2221H25.6188ZM27.3287 15.1133C27.3287 15.038 27.3095 14.9208 27.2547 14.7878C27.2005 14.6566 27.1254 14.544 27.0462 14.464C26.9687 14.3859 26.9029 14.3537 26.8575 14.3414C26.821 14.3315 26.7512 14.3206 26.6236 14.3649L25.8576 12.1627C27.0196 11.7585 28.0409 12.1557 28.7019 12.8224C29.3119 13.4376 29.6603 14.312 29.6603 15.1133H27.3287ZM26.6236 14.3649C26.5355 14.3956 26.3902 14.4891 26.2224 14.7864C26.0536 15.0856 25.9173 15.4977 25.8183 15.9783C25.6207 16.9367 25.6188 17.9177 25.6188 18.2221H23.2872C23.2872 17.9048 23.2853 16.7175 23.5346 15.5076C23.659 14.9041 23.858 14.2321 24.1919 13.6404C24.5268 13.047 25.0519 12.443 25.8576 12.1627L26.6236 14.3649Z" fill="#A5C4D4"/>
<path d="M32.4583 18.2221C32.4583 18.866 31.9363 19.3879 31.2925 19.3879C30.6486 19.3879 30.1267 18.866 30.1267 18.2221H32.4583ZM34.1681 15.1133C34.1681 15.038 34.149 14.9208 34.0941 14.7878C34.04 14.6566 33.9649 14.544 33.8856 14.464C33.8082 14.3859 33.7424 14.3537 33.697 14.3414C33.6605 14.3315 33.5906 14.3206 33.4631 14.3649L32.6971 12.1627C33.8591 11.7585 34.8804 12.1557 35.5414 12.8224C36.1514 13.4376 36.4998 14.312 36.4998 15.1133H34.1681ZM33.4631 14.3649C33.375 14.3956 33.2297 14.4891 33.0619 14.7864C32.893 15.0856 32.7568 15.4977 32.6577 15.9783C32.4602 16.9367 32.4583 17.9177 32.4583 18.2221H30.1267C30.1267 17.9048 30.1248 16.7175 30.3741 15.5076C30.4985 14.9041 30.6974 14.2321 31.0313 13.6404C31.3663 13.047 31.8913 12.443 32.6971 12.1627L33.4631 14.3649Z" fill="#A5C4D4"/>
</svg>
