<svg width="146" height="33" viewBox="0 0 146 33" fill="none" xmlns="http://www.w3.org/2000/svg">
<path d="M45.0981 26.5133C43.9988 26.5133 43.0127 26.3193 42.1397 25.9313C41.2668 25.5271 40.5717 24.9856 40.0543 24.3066C39.5532 23.6276 39.2784 22.8758 39.2299 22.0514H42.649C42.7136 22.5687 42.9642 22.9971 43.4007 23.3366C43.8533 23.676 44.4111 23.8459 45.0739 23.8459C45.7205 23.8459 46.2216 23.7166 46.5773 23.4579C46.9491 23.1993 47.135 22.8679 47.135 22.4637C47.135 22.0272 46.9087 21.7039 46.456 21.4938C46.0196 21.2674 45.3163 21.0248 44.3464 20.7662C43.3441 20.5237 42.5196 20.2732 41.873 20.0146C41.2425 19.7559 40.6929 19.3599 40.2241 18.8264C39.7714 18.2929 39.5451 17.5735 39.5451 16.6682C39.5451 15.9246 39.7553 15.2456 40.1756 14.6313C40.6121 14.017 41.2264 13.532 42.0185 13.1764C42.8268 12.8207 43.7725 12.6429 44.8556 12.6429C46.456 12.6429 47.7331 13.0471 48.6869 13.8554C49.6407 14.6475 50.1661 15.7225 50.2631 17.0805H47.0138C46.9653 16.547 46.7389 16.1267 46.3348 15.8195C45.9468 15.4962 45.4214 15.3345 44.7586 15.3345C44.1443 15.3345 43.6674 15.4477 43.3279 15.674C43.0046 15.9003 42.843 16.2156 42.843 16.6197C42.843 17.0724 43.0693 17.4199 43.5219 17.6624C43.9746 17.8888 44.6778 18.1232 45.6316 18.3656C46.6015 18.6081 47.4017 18.8587 48.0322 19.1174C48.6627 19.376 49.2042 19.7802 49.6569 20.3298C50.1257 20.8633 50.3682 21.5746 50.3844 22.4637C50.3844 23.2397 50.1661 23.9347 49.7296 24.549C49.3093 25.1633 48.695 25.6484 47.8867 26.004C47.0946 26.3435 46.1651 26.5133 45.0981 26.5133ZM65.8532 12.8612V26.295H62.4341V24.5975C61.9977 25.1795 61.4238 25.6403 60.7125 25.9798C60.0173 26.3031 59.2575 26.4648 58.4331 26.4648C57.3823 26.4648 56.4528 26.2465 55.6445 25.81C54.8362 25.3574 54.1976 24.7027 53.7288 23.8459C53.2762 22.9729 53.0498 21.9383 53.0498 20.742V12.8612H56.4447V20.2571C56.4447 21.324 56.7114 22.1485 57.2449 22.7304C57.7784 23.2962 58.5058 23.5792 59.4273 23.5792C60.3649 23.5792 61.1005 23.2962 61.6339 22.7304C62.1674 22.1485 62.4341 21.324 62.4341 20.2571V12.8612H65.8532ZM72.5976 14.8253C73.0341 14.1787 73.6322 13.6533 74.392 13.2491C75.168 12.845 76.049 12.6429 77.0352 12.6429C78.1829 12.6429 79.2176 12.9258 80.139 13.4916C81.0766 14.0574 81.8122 14.8657 82.3457 15.9165C82.8953 16.9511 83.1701 18.1554 83.1701 19.5295C83.1701 20.9036 82.8953 22.1241 82.3457 23.1911C81.8122 24.2419 81.0766 25.0583 80.139 25.6403C79.2176 26.2223 78.1829 26.5133 77.0352 26.5133C76.0329 26.5133 75.1518 26.3193 74.392 25.9313C73.6484 25.5271 73.0503 25.0097 72.5976 24.3793V26.295H69.2028V8.35083H72.5976V14.8253ZM79.7025 19.5295C79.7025 18.7212 79.5328 18.0261 79.1933 17.4441C78.87 16.846 78.4335 16.3934 77.8839 16.0863C77.3504 15.7791 76.7684 15.6255 76.138 15.6255C75.5236 15.6255 74.9417 15.7871 74.392 16.1104C73.8586 16.4176 73.4221 16.8703 73.0826 17.4684C72.7593 18.0666 72.5976 18.7697 72.5976 19.578C72.5976 20.3863 72.7593 21.0895 73.0826 21.6876C73.4221 22.2858 73.8586 22.7465 74.392 23.0698C74.9417 23.377 75.5236 23.5307 76.138 23.5307C76.7684 23.5307 77.3504 23.369 77.8839 23.0457C78.4335 22.7224 78.87 22.2616 79.1933 21.6635C79.5328 21.0654 79.7025 20.354 79.7025 19.5295ZM86.316 9.36928H89.8806L87.2617 15.48H84.9338L86.316 9.36928Z" fill="#FAFAFA"/>
<path d="M98.2802 26.5132C96.9869 26.5132 95.823 26.2303 94.7883 25.6645C93.7537 25.0825 92.9374 24.2661 92.3392 23.2153C91.7572 22.1645 91.4663 20.9521 91.4663 19.578C91.4663 18.2039 91.7653 16.9914 92.3635 15.9407C92.9778 14.8899 93.8103 14.0816 94.8611 13.5158C95.9119 12.9338 97.0839 12.6428 98.3772 12.6428C99.6705 12.6428 100.842 12.9338 101.893 13.5158C102.944 14.0816 103.769 14.8899 104.367 15.9407C104.981 16.9914 105.288 18.2039 105.288 19.578C105.288 20.9521 104.973 22.1645 104.342 23.2153C103.728 24.2661 102.887 25.0825 101.821 25.6645C100.77 26.2303 99.5896 26.5132 98.2802 26.5132ZM98.2802 23.5548C98.8945 23.5548 99.4684 23.4093 100.002 23.1183C100.551 22.8112 100.988 22.3585 101.311 21.7604C101.635 21.1622 101.796 20.4348 101.796 19.578C101.796 18.3009 101.457 17.3228 100.778 16.6439C100.115 15.9487 99.2986 15.6012 98.3287 15.6012C97.3587 15.6012 96.5423 15.9487 95.8795 16.6439C95.2329 17.3228 94.9096 18.3009 94.9096 19.578C94.9096 20.8551 95.2248 21.8412 95.8553 22.5364C96.5019 23.2153 97.3102 23.5548 98.2802 23.5548ZM111.173 14.801C111.61 14.1867 112.208 13.6774 112.968 13.2733C113.744 12.853 114.625 12.6428 115.611 12.6428C116.758 12.6428 117.793 12.9257 118.715 13.4915C119.652 14.0573 120.388 14.8656 120.921 15.9164C121.471 16.951 121.746 18.1554 121.746 19.5295C121.746 20.9036 121.471 22.1241 120.921 23.1911C120.388 24.2419 119.652 25.0582 118.715 25.6402C117.793 26.2222 116.758 26.5132 115.611 26.5132C114.625 26.5132 113.752 26.3111 112.992 25.9069C112.248 25.5028 111.642 24.9936 111.173 24.3793V32.6966H107.778V12.8611H111.173V14.801ZM118.278 19.5295C118.278 18.7212 118.108 18.0261 117.769 17.4441C117.446 16.846 117.009 16.3933 116.459 16.0862C115.926 15.779 115.344 15.6254 114.714 15.6254C114.099 15.6254 113.517 15.7871 112.968 16.1104C112.434 16.4176 111.998 16.8702 111.658 17.4683C111.335 18.0665 111.173 18.7697 111.173 19.578C111.173 20.3863 111.335 21.0895 111.658 21.6876C111.998 22.2858 112.434 22.7465 112.968 23.0698C113.517 23.377 114.099 23.5306 114.714 23.5306C115.344 23.5306 115.926 23.3689 116.459 23.0456C117.009 22.7223 117.446 22.2615 117.769 21.6634C118.108 21.0653 118.278 20.354 118.278 19.5295ZM128.165 15.6497V22.1484C128.165 22.601 128.27 22.9324 128.48 23.1426C128.707 23.3366 129.079 23.4336 129.596 23.4336H131.172V26.2949H129.038C126.177 26.2949 124.746 24.9047 124.746 22.1241V15.6497H123.146V12.8611H124.746V9.53895H128.165V12.8611H131.172V15.6497H128.165ZM135.335 11.2606C134.737 11.2606 134.236 11.0747 133.832 10.7029C133.444 10.3149 133.25 9.83802 133.25 9.27221C133.25 8.7064 133.444 8.23759 133.832 7.86578C134.236 7.4778 134.737 7.28381 135.335 7.28381C135.934 7.28381 136.427 7.4778 136.815 7.86578C137.219 8.23759 137.421 8.7064 137.421 9.27221C137.421 9.83802 137.219 10.3149 136.815 10.7029C136.427 11.0747 135.934 11.2606 135.335 11.2606ZM137.009 12.8611V26.2949H133.614V12.8611H137.009ZM141.866 26.4647C141.252 26.4647 140.743 26.2788 140.338 25.9069C139.951 25.519 139.757 25.0421 139.757 24.4763C139.757 23.9105 139.951 23.4416 140.338 23.0698C140.743 22.6818 141.252 22.4879 141.866 22.4879C142.464 22.4879 142.957 22.6818 143.345 23.0698C143.733 23.4416 143.927 23.9105 143.927 24.4763C143.927 25.0421 143.733 25.519 143.345 25.9069C142.957 26.2788 142.464 26.4647 141.866 26.4647Z" fill="#A5C4D4"/>
<path d="M31.911 5.29493C26.2939 5.29493 18.8807 5.29492 12.9592 5.29492C10.3838 5.29492 8.25262 7.41527 7.43237 9.85659C6.42212 12.8634 4.67315 16.0144 2.9864 18.6031C1.86929 20.3176 3.05949 22.7396 5.10579 22.7396M31.911 5.29493V25.3096C31.911 27.885 29.8232 29.9728 27.2478 29.9728H11.488C9.72559 29.9728 8.2969 28.5441 8.2969 26.7817M31.911 5.29493C31.911 10.4847 27.1741 17.3432 23.8909 21.2274C23.058 22.2127 21.8183 22.7396 20.5282 22.7396H5.10579M31.911 5.29493C31.911 13.8739 29.0056 21.0099 26.7961 24.8301C26.0612 26.1007 24.665 26.7817 23.1972 26.7817H8.2969M5.10579 22.7396C4.2163 24.6174 5.5859 26.7817 7.66374 26.7817H8.2969" stroke="#FAFAFA" stroke-width="2.6425" stroke-linejoin="round"/>
<path d="M13.1369 10.1136H11.4452C11.1476 10.1136 10.8762 10.2836 10.7461 10.5513L10.1799 11.7171C9.92918 12.2333 10.3051 12.8339 10.879 12.8339H12.5706C12.8682 12.8339 13.1397 12.6639 13.2697 12.3962L13.836 11.2304C14.0867 10.7142 13.7107 10.1136 13.1369 10.1136Z" fill="#A5C4D4"/>
<path d="M18.4218 10.1136H16.7301C16.4325 10.1136 16.1611 10.2836 16.031 10.5513L15.4648 11.7171C15.2141 12.2333 15.59 12.8339 16.1639 12.8339H17.8555C18.1531 12.8339 18.4246 12.6639 18.5546 12.3962L19.1209 11.2304C19.3716 10.7142 18.9957 10.1136 18.4218 10.1136Z" fill="#A5C4D4"/>
<path d="M11.2715 14.4659H9.5799C9.2823 14.4659 9.01082 14.6359 8.8808 14.9036L8.31455 16.0694C8.06382 16.5856 8.43979 17.1862 9.01365 17.1862H10.7053C11.0029 17.1862 11.2743 17.0162 11.4044 16.7485L11.9706 15.5827C12.2213 15.0665 11.8454 14.4659 11.2715 14.4659Z" fill="#A5C4D4"/>
<path d="M17.1762 7.08259C17.1762 7.72645 16.6543 8.2484 16.0104 8.2484C15.3665 8.2484 14.8446 7.72645 14.8446 7.08259H17.1762ZM18.8861 3.97376C18.8861 3.89844 18.8669 3.78123 18.8121 3.64826C18.7579 3.51703 18.6828 3.40444 18.6036 3.3245C18.5261 3.24635 18.4603 3.21413 18.4149 3.20183C18.3784 3.19194 18.3086 3.18103 18.181 3.22541L17.415 1.0232C18.577 0.619011 19.5983 1.01617 20.2593 1.68287C20.8693 2.2981 21.2177 3.17247 21.2177 3.97376H18.8861ZM18.181 3.22541C18.0929 3.25604 17.9476 3.34957 17.7798 3.6469C17.611 3.9461 17.4747 4.35815 17.3757 4.83878C17.1781 5.79722 17.1762 6.77818 17.1762 7.08259H14.8446C14.8446 6.76523 14.8427 5.57793 15.092 4.36811C15.2164 3.76461 15.4154 3.09254 15.7493 2.50091C16.0842 1.90743 16.6093 1.30345 17.415 1.0232L18.181 3.22541Z" fill="#A5C4D4"/>
<path d="M24.0157 7.08259C24.0157 7.72645 23.4937 8.2484 22.8499 8.2484C22.206 8.2484 21.6841 7.72645 21.6841 7.08259H24.0157ZM25.7255 3.97376C25.7255 3.89844 25.7064 3.78123 25.6515 3.64826C25.5974 3.51703 25.5223 3.40444 25.443 3.3245C25.3656 3.24635 25.2998 3.21413 25.2544 3.20183C25.2179 3.19194 25.148 3.18103 25.0205 3.22541L24.2545 1.0232C25.4165 0.619011 26.4378 1.01617 27.0988 1.68287C27.7088 2.2981 28.0572 3.17247 28.0572 3.97376H25.7255ZM25.0205 3.22541C24.9324 3.25604 24.7871 3.34957 24.6193 3.6469C24.4504 3.9461 24.3142 4.35815 24.2151 4.83878C24.0176 5.79722 24.0157 6.77818 24.0157 7.08259H21.6841C21.6841 6.76523 21.6822 5.57793 21.9315 4.36811C22.0559 3.76461 22.2548 3.09254 22.5887 2.50091C22.9237 1.90743 23.4487 1.30345 24.2545 1.0232L25.0205 3.22541Z" fill="#A5C4D4"/>
</svg>
